<?xml version="1.0" encoding="UTF-8"?>
<svg xmlns="http://www.w3.org/2000/svg" xmlns:xlink="http://www.w3.org/1999/xlink" width="30px" height="30px" viewBox="0 0 30 30" version="1.1">
<g id="surface1">
<path style=" stroke:none;fill-rule:nonzero;fill:rgb(0%,0%,0%);fill-opacity:1;" d="M 7.539062 29.355469 C 4.640625 29.355469 2.113281 27.695312 1.101562 25.132812 C 0.425781 23.421875 0.503906 21.539062 1.316406 19.828125 C 2.121094 18.148438 3.539062 16.832031 5.320312 16.128906 C 6.214844 15.773438 7.152344 15.597656 8.101562 15.597656 C 9.738281 15.597656 11.296875 16.136719 12.515625 17.101562 C 14.238281 15.644531 15.804688 14.144531 17.171875 12.621094 C 15.554688 10.65625 15.121094 7.867188 16.128906 5.320312 C 17.238281 2.523438 19.890625 0.644531 22.75 0.644531 C 23.570312 0.644531 24.375 0.796875 25.136719 1.101562 C 28.632812 2.484375 30.289062 6.625 28.828125 10.335938 C 28.828125 10.335938 28.363281 11.476562 28.324219 11.542969 C 20.5 23.789062 12.25 27.894531 11.378906 28.304688 C 9.878906 29.183594 8.496094 29.355469 7.539062 29.355469 Z M 8.101562 17.988281 C 7.453125 17.988281 6.8125 18.109375 6.199219 18.359375 C 4.980469 18.835938 4.011719 19.726562 3.472656 20.859375 C 2.945312 21.960938 2.894531 23.167969 3.320312 24.257812 C 3.972656 25.90625 5.625 26.96875 7.539062 26.96875 C 9.1875 26.96875 10.289062 26.179688 10.328125 26.164062 C 10.414062 26.125 18.578125 22.304688 26.242188 10.351562 L 26.601562 9.457031 C 27.578125 6.976562 26.53125 4.222656 24.257812 3.328125 C 23.777344 3.140625 23.273438 3.039062 22.75 3.039062 C 20.871094 3.039062 19.109375 4.3125 18.359375 6.199219 C 17.585938 8.160156 18.082031 10.414062 19.578125 11.660156 C 20.1875 12.171875 20.039062 12.992188 19.71875 13.351562 C 17.847656 15.46875 15.703125 17.613281 13.226562 19.628906 C 12.726562 20.03125 12 19.976562 11.578125 19.492188 C 10.726562 18.53125 9.460938 17.988281 8.101562 17.988281 Z M 8.101562 17.988281 "/>
</g>
</svg>
